<mxfile host="app.diagrams.net" modified="2024-02-20T14:51:09.405Z" agent="Mozilla/5.0 (Windows NT 10.0; Win64; x64) AppleWebKit/537.36 (KHTML, like Gecko) Chrome/121.0.0.0 Safari/537.36" etag="0gESJN9MPXFWYeLO2hUj" version="23.1.5" type="github">
  <diagram name="Page-1" id="YOafAM3x802z-2lJPLI0">
    <mxGraphModel dx="1050" dy="522" grid="1" gridSize="10" guides="1" tooltips="1" connect="1" arrows="1" fold="1" page="1" pageScale="1" pageWidth="827" pageHeight="1169" math="0" shadow="0">
      <root>
        <mxCell id="0" />
        <mxCell id="1" parent="0" />
        <mxCell id="r3_mbHRN_LjCvHjCb5Vp-2" value="Authentication Module" style="swimlane;whiteSpace=wrap;html=1;" parent="1" vertex="1">
          <mxGeometry x="80" y="100" width="680" height="420" as="geometry" />
        </mxCell>
        <mxCell id="r3_mbHRN_LjCvHjCb5Vp-15" value="Login With GitHub" style="ellipse;whiteSpace=wrap;html=1;" parent="r3_mbHRN_LjCvHjCb5Vp-2" vertex="1">
          <mxGeometry x="40" y="100" width="200" height="40" as="geometry" />
        </mxCell>
        <mxCell id="r3_mbHRN_LjCvHjCb5Vp-16" value="Login With Google" style="ellipse;whiteSpace=wrap;html=1;" parent="r3_mbHRN_LjCvHjCb5Vp-2" vertex="1">
          <mxGeometry x="40" y="260" width="200" height="40" as="geometry" />
        </mxCell>
        <mxCell id="r3_mbHRN_LjCvHjCb5Vp-17" value="Authenticate via Github" style="ellipse;whiteSpace=wrap;html=1;" parent="r3_mbHRN_LjCvHjCb5Vp-2" vertex="1">
          <mxGeometry x="280" y="60" width="200" height="40" as="geometry" />
        </mxCell>
        <mxCell id="r3_mbHRN_LjCvHjCb5Vp-18" value="Authenticate via Google" style="ellipse;whiteSpace=wrap;html=1;" parent="r3_mbHRN_LjCvHjCb5Vp-2" vertex="1">
          <mxGeometry x="280" y="300" width="200" height="40" as="geometry" />
        </mxCell>
        <mxCell id="r3_mbHRN_LjCvHjCb5Vp-19" value="Access Restricted Page" style="ellipse;whiteSpace=wrap;html=1;" parent="r3_mbHRN_LjCvHjCb5Vp-2" vertex="1">
          <mxGeometry x="440" y="180" width="200" height="40" as="geometry" />
        </mxCell>
        <mxCell id="r3_mbHRN_LjCvHjCb5Vp-20" value="" style="endArrow=classic;html=1;rounded=0;entryX=0;entryY=0.5;entryDx=0;entryDy=0;" parent="r3_mbHRN_LjCvHjCb5Vp-2" target="r3_mbHRN_LjCvHjCb5Vp-15" edge="1">
          <mxGeometry width="50" height="50" relative="1" as="geometry">
            <mxPoint x="-20" y="200" as="sourcePoint" />
            <mxPoint x="30" y="150" as="targetPoint" />
          </mxGeometry>
        </mxCell>
        <mxCell id="r3_mbHRN_LjCvHjCb5Vp-22" value="" style="endArrow=classic;html=1;rounded=0;exitX=1;exitY=0.5;exitDx=0;exitDy=0;entryX=0;entryY=0.5;entryDx=0;entryDy=0;dashed=1;" parent="r3_mbHRN_LjCvHjCb5Vp-2" source="r3_mbHRN_LjCvHjCb5Vp-15" target="r3_mbHRN_LjCvHjCb5Vp-17" edge="1">
          <mxGeometry width="50" height="50" relative="1" as="geometry">
            <mxPoint x="230" y="190" as="sourcePoint" />
            <mxPoint x="280" y="140" as="targetPoint" />
          </mxGeometry>
        </mxCell>
        <mxCell id="r3_mbHRN_LjCvHjCb5Vp-23" value="" style="endArrow=classic;html=1;rounded=0;exitX=1;exitY=0.5;exitDx=0;exitDy=0;entryX=0;entryY=0.5;entryDx=0;entryDy=0;dashed=1;" parent="r3_mbHRN_LjCvHjCb5Vp-2" source="r3_mbHRN_LjCvHjCb5Vp-16" target="r3_mbHRN_LjCvHjCb5Vp-18" edge="1">
          <mxGeometry width="50" height="50" relative="1" as="geometry">
            <mxPoint x="300" y="300" as="sourcePoint" />
            <mxPoint x="350" y="250" as="targetPoint" />
          </mxGeometry>
        </mxCell>
        <mxCell id="r3_mbHRN_LjCvHjCb5Vp-24" value="" style="endArrow=classic;html=1;rounded=0;exitX=1;exitY=0.5;exitDx=0;exitDy=0;entryX=0.5;entryY=0;entryDx=0;entryDy=0;dashed=1;" parent="r3_mbHRN_LjCvHjCb5Vp-2" source="r3_mbHRN_LjCvHjCb5Vp-17" target="r3_mbHRN_LjCvHjCb5Vp-19" edge="1">
          <mxGeometry width="50" height="50" relative="1" as="geometry">
            <mxPoint x="380" y="200" as="sourcePoint" />
            <mxPoint x="430" y="150" as="targetPoint" />
          </mxGeometry>
        </mxCell>
        <mxCell id="r3_mbHRN_LjCvHjCb5Vp-25" value="" style="endArrow=classic;html=1;rounded=0;exitX=1;exitY=0.5;exitDx=0;exitDy=0;entryX=0.5;entryY=1;entryDx=0;entryDy=0;dashed=1;" parent="r3_mbHRN_LjCvHjCb5Vp-2" source="r3_mbHRN_LjCvHjCb5Vp-18" target="r3_mbHRN_LjCvHjCb5Vp-19" edge="1">
          <mxGeometry width="50" height="50" relative="1" as="geometry">
            <mxPoint x="390" y="290" as="sourcePoint" />
            <mxPoint x="440" y="240" as="targetPoint" />
          </mxGeometry>
        </mxCell>
        <mxCell id="r3_mbHRN_LjCvHjCb5Vp-14" value="Actor" style="shape=umlActor;verticalLabelPosition=bottom;verticalAlign=top;html=1;outlineConnect=0;" parent="1" vertex="1">
          <mxGeometry x="26" y="260" width="30" height="60" as="geometry" />
        </mxCell>
        <mxCell id="r3_mbHRN_LjCvHjCb5Vp-21" value="" style="endArrow=classic;html=1;rounded=0;entryX=0;entryY=0.5;entryDx=0;entryDy=0;" parent="1" target="r3_mbHRN_LjCvHjCb5Vp-16" edge="1">
          <mxGeometry width="50" height="50" relative="1" as="geometry">
            <mxPoint x="60" y="300" as="sourcePoint" />
            <mxPoint x="170" y="280" as="targetPoint" />
          </mxGeometry>
        </mxCell>
      </root>
    </mxGraphModel>
  </diagram>
</mxfile>
